<svg aria-roledescription="gitGraph" role="graphics-document document" viewBox="-136.59375 -34.70000076293945 644.59375 478.8545837402344" height="478.8545837402344" xmlns:xlink="http://www.w3.org/1999/xlink" xmlns="http://www.w3.org/2000/svg" width="644.59375" id="mermaid-1690001711682" style="background-color: rgb(255, 255, 255);"><style>#mermaid-1690001711682{font-family:"trebuchet ms",verdana,arial,sans-serif;font-size:16px;fill:#333;}#mermaid-1690001711682 .error-icon{fill:#552222;}#mermaid-1690001711682 .error-text{fill:#552222;stroke:#552222;}#mermaid-1690001711682 .edge-thickness-normal{stroke-width:2px;}#mermaid-1690001711682 .edge-thickness-thick{stroke-width:3.5px;}#mermaid-1690001711682 .edge-pattern-solid{stroke-dasharray:0;}#mermaid-1690001711682 .edge-pattern-dashed{stroke-dasharray:3;}#mermaid-1690001711682 .edge-pattern-dotted{stroke-dasharray:2;}#mermaid-1690001711682 .marker{fill:#333333;stroke:#333333;}#mermaid-1690001711682 .marker.cross{stroke:#333333;}#mermaid-1690001711682 svg{font-family:"trebuchet ms",verdana,arial,sans-serif;font-size:16px;}#mermaid-1690001711682 .commit-id,#mermaid-1690001711682 .commit-msg,#mermaid-1690001711682 .branch-label{fill:lightgrey;color:lightgrey;font-family:'trebuchet ms',verdana,arial,sans-serif;font-family:var(--mermaid-font-family);}#mermaid-1690001711682 .branch-label0{fill:#ffffff;}#mermaid-1690001711682 .commit0{stroke:hsl(240, 100%, 46.2745098039%);fill:hsl(240, 100%, 46.2745098039%);}#mermaid-1690001711682 .commit-highlight0{stroke:hsl(60, 100%, 3.7254901961%);fill:hsl(60, 100%, 3.7254901961%);}#mermaid-1690001711682 .label0{fill:hsl(240, 100%, 46.2745098039%);}#mermaid-1690001711682 .arrow0{stroke:hsl(240, 100%, 46.2745098039%);}#mermaid-1690001711682 .branch-label1{fill:black;}#mermaid-1690001711682 .commit1{stroke:hsl(60, 100%, 43.5294117647%);fill:hsl(60, 100%, 43.5294117647%);}#mermaid-1690001711682 .commit-highlight1{stroke:rgb(0, 0, 160.5);fill:rgb(0, 0, 160.5);}#mermaid-1690001711682 .label1{fill:hsl(60, 100%, 43.5294117647%);}#mermaid-1690001711682 .arrow1{stroke:hsl(60, 100%, 43.5294117647%);}#mermaid-1690001711682 .branch-label2{fill:black;}#mermaid-1690001711682 .commit2{stroke:hsl(80, 100%, 46.2745098039%);fill:hsl(80, 100%, 46.2745098039%);}#mermaid-1690001711682 .commit-highlight2{stroke:rgb(48.8333333334, 0, 146.5000000001);fill:rgb(48.8333333334, 0, 146.5000000001);}#mermaid-1690001711682 .label2{fill:hsl(80, 100%, 46.2745098039%);}#mermaid-1690001711682 .arrow2{stroke:hsl(80, 100%, 46.2745098039%);}#mermaid-1690001711682 .branch-label3{fill:#ffffff;}#mermaid-1690001711682 .commit3{stroke:hsl(210, 100%, 46.2745098039%);fill:hsl(210, 100%, 46.2745098039%);}#mermaid-1690001711682 .commit-highlight3{stroke:rgb(146.5000000001, 73.2500000001, 0);fill:rgb(146.5000000001, 73.2500000001, 0);}#mermaid-1690001711682 .label3{fill:hsl(210, 100%, 46.2745098039%);}#mermaid-1690001711682 .arrow3{stroke:hsl(210, 100%, 46.2745098039%);}#mermaid-1690001711682 .branch-label4{fill:black;}#mermaid-1690001711682 .commit4{stroke:hsl(180, 100%, 46.2745098039%);fill:hsl(180, 100%, 46.2745098039%);}#mermaid-1690001711682 .commit-highlight4{stroke:rgb(146.5000000001, 0, 0);fill:rgb(146.5000000001, 0, 0);}#mermaid-1690001711682 .label4{fill:hsl(180, 100%, 46.2745098039%);}#mermaid-1690001711682 .arrow4{stroke:hsl(180, 100%, 46.2745098039%);}#mermaid-1690001711682 .branch-label5{fill:black;}#mermaid-1690001711682 .commit5{stroke:hsl(150, 100%, 46.2745098039%);fill:hsl(150, 100%, 46.2745098039%);}#mermaid-1690001711682 .commit-highlight5{stroke:rgb(146.5000000001, 0, 73.2500000001);fill:rgb(146.5000000001, 0, 73.2500000001);}#mermaid-1690001711682 .label5{fill:hsl(150, 100%, 46.2745098039%);}#mermaid-1690001711682 .arrow5{stroke:hsl(150, 100%, 46.2745098039%);}#mermaid-1690001711682 .branch-label6{fill:black;}#mermaid-1690001711682 .commit6{stroke:hsl(300, 100%, 46.2745098039%);fill:hsl(300, 100%, 46.2745098039%);}#mermaid-1690001711682 .commit-highlight6{stroke:rgb(0, 146.5000000001, 0);fill:rgb(0, 146.5000000001, 0);}#mermaid-1690001711682 .label6{fill:hsl(300, 100%, 46.2745098039%);}#mermaid-1690001711682 .arrow6{stroke:hsl(300, 100%, 46.2745098039%);}#mermaid-1690001711682 .branch-label7{fill:black;}#mermaid-1690001711682 .commit7{stroke:hsl(0, 100%, 46.2745098039%);fill:hsl(0, 100%, 46.2745098039%);}#mermaid-1690001711682 .commit-highlight7{stroke:rgb(0, 146.5000000001, 146.5000000001);fill:rgb(0, 146.5000000001, 146.5000000001);}#mermaid-1690001711682 .label7{fill:hsl(0, 100%, 46.2745098039%);}#mermaid-1690001711682 .arrow7{stroke:hsl(0, 100%, 46.2745098039%);}#mermaid-1690001711682 .branch{stroke-width:1;stroke:#333333;stroke-dasharray:2;}#mermaid-1690001711682 .commit-label{font-size:10px;fill:#000021;}#mermaid-1690001711682 .commit-label-bkg{font-size:10px;fill:#ffffde;opacity:0.5;}#mermaid-1690001711682 .tag-label{font-size:10px;fill:#131300;}#mermaid-1690001711682 .tag-label-bkg{fill:#ECECFF;stroke:hsl(240, 60%, 86.2745098039%);}#mermaid-1690001711682 .tag-hole{fill:#333;}#mermaid-1690001711682 .commit-merge{stroke:#ECECFF;fill:#ECECFF;}#mermaid-1690001711682 .commit-reverse{stroke:#ECECFF;fill:#ECECFF;stroke-width:3;}#mermaid-1690001711682 .commit-highlight-inner{stroke:#ECECFF;fill:#ECECFF;}#mermaid-1690001711682 .arrow{stroke-width:8;stroke-linecap:round;fill:none;}#mermaid-1690001711682 .gitTitleText{text-anchor:middle;font-size:18px;fill:#333;}:root{--mermaid-font-family:"trebuchet ms",verdana,arial,sans-serif;}</style><g/><g class="commit-bullets"/><g class="commit-labels"/><g><line class="branch branch0" y2="0" x2="500" y1="0" x1="0"/><rect transform="translate(-19, -8.5)" height="21" width="52.6875" y="-0.5" x="-68.6875" ry="4" rx="4" class="branchLabelBkg label0"/><g class="branchLabel"><g transform="translate(-78.6875, -9.5)" class="label branch-label0"><text><tspan class="row" x="0" dy="1em" xml:space="preserve">main</tspan></text></g></g><line class="branch branch1" y2="90" x2="500" y1="90" x1="0"/><rect transform="translate(-19, 81.5)" height="21" width="74.1484375" y="-0.5" x="-90.1484375" ry="4" rx="4" class="branchLabelBkg label1"/><g class="branchLabel"><g transform="translate(-100.1484375, 80.5)" class="label branch-label1"><text><tspan class="row" x="0" dy="1em" xml:space="preserve">develop</tspan></text></g></g><line class="branch branch2" y2="180" x2="500" y1="180" x1="0"/><rect transform="translate(-19, 171.5)" height="21" width="67.9140625" y="-0.5" x="-83.9140625" ry="4" rx="4" class="branchLabelBkg label2"/><g class="branchLabel"><g transform="translate(-93.9140625, 170.5)" class="label branch-label2"><text><tspan class="row" x="0" dy="1em" xml:space="preserve">feature</tspan></text></g></g><line class="branch branch3" y2="270" x2="500" y1="270" x1="0"/><rect transform="translate(-19, 261.5)" height="21" width="60.703125" y="-0.5" x="-76.703125" ry="4" rx="4" class="branchLabelBkg label3"/><g class="branchLabel"><g transform="translate(-86.703125, 260.5)" class="label branch-label3"><text><tspan class="row" x="0" dy="1em" xml:space="preserve">bugfix</tspan></text></g></g><line class="branch branch4" y2="360" x2="500" y1="360" x1="0"/><rect transform="translate(-19, 351.5)" height="21" width="93.59375" y="-0.5" x="-109.59375" ry="4" rx="4" class="branchLabelBkg label4"/><g class="branchLabel"><g transform="translate(-119.59375, 350.5)" class="label branch-label4"><text><tspan class="row" x="0" dy="1em" xml:space="preserve">refactoring</tspan></text></g></g></g><g class="commit-arrows"><path class="arrow arrow1" d="M 10 0 L 10 70 A 20 20, 0, 0, 0, 30 90 L 60 90"/><path class="arrow arrow2" d="M 60 90 L 60 160 A 20 20, 0, 0, 0, 80 180 L 110 180"/><path class="arrow arrow1" d="M 60 90 L 60 90  60 90 L 160 90"/><path class="arrow arrow2" d="M 110 180 L 140 180 A 20 20, 0, 0, 0, 160 160 L 160 90"/><path class="arrow arrow3" d="M 160 90 L 160 250 A 20 20, 0, 0, 0, 180 270 L 210 270"/><path class="arrow arrow1" d="M 160 90 L 160 90  160 90 L 260 90"/><path class="arrow arrow3" d="M 210 270 L 240 270 A 20 20, 0, 0, 0, 260 250 L 260 90"/><path class="arrow arrow0" d="M 10 0 L 10 0  10 0 L 310 0"/><path class="arrow arrow1" d="M 260 90 L 290 90 A 20 20, 0, 0, 0, 310 70 L 310 0"/><path class="arrow arrow4" d="M 260 90 L 260 340 A 20 20, 0, 0, 0, 280 360 L 360 360"/><path class="arrow arrow1" d="M 260 90 L 260 90  260 90 L 410 90"/><path class="arrow arrow4" d="M 360 360 L 390 360 A 20 20, 0, 0, 0, 410 340 L 410 90"/><path class="arrow arrow0" d="M 310 0 L 310 0  310 0 L 460 0"/><path class="arrow arrow1" d="M 410 90 L 440 90 A 20 20, 0, 0, 0, 460 70 L 460 0"/></g><g class="commit-bullets"><circle class="commit init commit0" r="10" cy="0" cx="10"/><circle class="commit setup commit1" r="10" cy="90" cx="60"/><circle class="commit some feature commit2" r="10" cy="180" cx="110"/><circle class="commit 3-a256f33 commit1" r="9" cy="90" cx="160"/><circle class="commit commit-merge 3-a256f33 commit1" r="6" cy="90" cx="160"/><circle class="commit fixing bugs commit3" r="10" cy="270" cx="210"/><circle class="commit 5-0302c9c commit1" r="9" cy="90" cx="260"/><circle class="commit commit-merge 5-0302c9c commit1" r="6" cy="90" cx="260"/><circle class="commit v1.0.0 commit0" r="9" cy="0" cx="310"/><circle class="commit commit-merge v1.0.0 commit0" r="6" cy="0" cx="310"/><circle class="commit some refactoring commit4" r="10" cy="360" cx="360"/><circle class="commit 8-969c3d4 commit1" r="9" cy="90" cx="410"/><circle class="commit commit-merge 8-969c3d4 commit1" r="6" cy="90" cx="410"/><circle class="commit v1.0.1 commit0" r="9" cy="0" cx="460"/><circle class="commit commit-merge v1.0.1 commit0" r="6" cy="0" cx="460"/></g><g class="commit-labels"><g transform="translate(-16.24185546875, 14.421660156249999) rotate(-45, 0, 0)"><rect height="15" width="17.0048828125" y="13.5" x="1.49755859375" class="commit-label-bkg"/><text class="commit-label" y="25" x="3.49755859375">init</text></g><polygon points="-15.83984375,-17.2&#10;          -15.83984375,-21.2&#10;          -7.83984375,-26.7&#10;          27.83984375,-26.7&#10;          27.83984375,-11.7&#10;          -7.83984375,-11.7" class="tag-label-bkg"/><circle class="tag-hole" r="1.5" cy="-19.2" cx="-11.83984375"/><text x="-3.83984375" class="tag-label" y="-16">v0.0.1</text><g transform="translate(-20.76251953125, 18.46646484375) rotate(-45, 50, 90)"><rect height="15" width="28.9013671875" y="103.5" x="45.54931640625" class="commit-label-bkg"/><text class="commit-label" y="115" x="47.54931640625">setup</text></g><g transform="translate(-33.6450390625, 29.9929296875) rotate(-45, 100, 180)"><rect height="15" width="62.802734375" y="193.5" x="78.5986328125" class="commit-label-bkg"/><text class="commit-label" y="205" x="80.5986328125">some feature</text></g><g transform="translate(-29.46875, 26.25625) rotate(-45, 200, 270)"><rect height="15" width="51.8125" y="283.5" x="184.09375" class="commit-label-bkg"/><text class="commit-label" y="295" x="186.09375">fixing bugs</text></g><g transform="translate(-21.81828125, 19.41109375) rotate(-45, 300, 0)"><rect height="15" width="31.6796875" y="13.5" x="294.16015625" class="commit-label-bkg"/><text class="commit-label" y="25" x="296.16015625">v1.0.0</text></g><polygon points="284.16015625,-17.2&#10;          284.16015625,-21.2&#10;          292.16015625,-26.7&#10;          327.83984375,-26.7&#10;          327.83984375,-11.7&#10;          292.16015625,-11.7" class="tag-label-bkg"/><circle class="tag-hole" r="1.5" cy="-19.2" cx="288.16015625"/><text x="296.16015625" class="tag-label" y="-16">v1.0.0</text><g transform="translate(-39.6040625, 35.324687499999996) rotate(-45, 350, 360)"><rect height="15" width="78.484375" y="373.5" x="320.7578125" class="commit-label-bkg"/><text class="commit-label" y="385" x="322.7578125">some refactoring</text></g><g transform="translate(-21.81828125, 19.41109375) rotate(-45, 450, 0)"><rect height="15" width="31.6796875" y="13.5" x="444.16015625" class="commit-label-bkg"/><text class="commit-label" y="25" x="446.16015625">v1.0.1</text></g><polygon points="434.16015625,-17.2&#10;          434.16015625,-21.2&#10;          442.16015625,-26.7&#10;          477.83984375,-26.7&#10;          477.83984375,-11.7&#10;          442.16015625,-11.7" class="tag-label-bkg"/><circle class="tag-hole" r="1.5" cy="-19.2" cx="438.16015625"/><text x="446.16015625" class="tag-label" y="-16">v1.0.1</text></g></svg>